<?xml version="1.0" standalone="no"?>
<!DOCTYPE svg PUBLIC "-//W3C//DTD SVG 20010904//EN"
 "http://www.w3.org/TR/2001/REC-SVG-20010904/DTD/svg10.dtd">
<svg version="1.0" xmlns="http://www.w3.org/2000/svg"
 width="5712.000000pt" height="2368.000000pt" viewBox="0 0 5712.000000 2368.000000"
 preserveAspectRatio="xMidYMid meet">

<g transform="translate(0.000000,2368.000000) scale(0.100000,-0.100000)"
fill="#000000" stroke="none">
<path d="M33500 23264 c-80 -11 -389 -66 -466 -84 -124 -29 -203 -70 -339
-176 -253 -196 -640 -677 -898 -1114 -452 -768 -853 -1697 -1163 -2695 -404
-1299 -766 -3111 -890 -4456 l-18 -185 -55 -37 c-31 -21 -99 -69 -151 -107
-783 -576 -2047 -970 -3200 -997 -692 -16 -1285 105 -1624 331 -76 51 -145
112 -135 119 2 2 108 13 234 26 818 78 1378 237 1705 481 114 85 263 230 329
320 101 135 161 297 161 432 0 80 -53 364 -80 424 -63 145 -274 261 -615 339
-423 97 -870 26 -1360 -214 -185 -91 -345 -191 -482 -302 -243 -197 -482 -500
-588 -749 -20 -46 -38 -86 -39 -87 -2 -2 -99 -28 -217 -57 -587 -149 -1347
-272 -2126 -344 l-193 -18 0 25 c0 14 22 213 49 441 28 228 71 593 96 810 85
726 261 2021 360 2640 155 975 337 1740 553 2334 60 167 65 187 66 266 1 67
-4 95 -20 131 -28 60 -109 138 -181 174 -53 27 -68 30 -183 33 -111 3 -128 1
-157 -17 -72 -45 -139 -171 -228 -431 -199 -580 -377 -1330 -515 -2160 -159
-961 -392 -2694 -540 -4020 -17 -151 -32 -280 -34 -285 -7 -20 -1142 -84
-2031 -115 -460 -16 -1114 -30 -1379 -30 l-239 0 -236 84 c-449 160 -964 315
-1423 427 -139 34 -254 63 -256 64 -1 1 6 137 18 301 26 385 46 771 65 1264
55 1400 124 2167 251 2790 40 195 41 273 6 354 -27 60 -91 119 -170 158 -63
31 -73 33 -172 33 -123 0 -177 -14 -225 -57 -43 -37 -99 -149 -119 -238 -52
-225 -121 -665 -156 -1000 -45 -434 -103 -1387 -130 -2115 -16 -443 -64 -1297
-75 -1331 -2 -7 -43 -3 -127 12 -664 123 -1851 255 -2653 294 -262 13 -862 13
-1100 0 -804 -43 -1202 -131 -1490 -331 -190 -131 -309 -331 -291 -486 14
-117 104 -294 192 -379 130 -125 506 -261 868 -314 759 -111 1676 -169 3011
-190 680 -11 1417 -30 1425 -37 9 -9 -53 -340 -95 -508 -24 -93 -60 -215 -80
-270 -89 -241 -95 -260 -95 -320 0 -46 7 -74 29 -120 61 -128 154 -197 287
-214 130 -16 221 14 299 100 118 131 266 624 363 1214 l18 110 29 -2 c17 -1
455 -5 975 -8 l945 -7 173 -69 c530 -211 1019 -465 1452 -754 330 -220 560
-407 810 -655 474 -471 793 -979 990 -1575 66 -201 86 -241 150 -298 64 -57
130 -81 230 -80 127 1 251 65 306 159 47 80 55 137 48 349 -15 471 60 1497
209 2830 l32 290 90 8 c877 75 1698 196 2349 348 93 21 170 38 171 37 1 -2 26
-55 57 -118 149 -307 319 -474 643 -630 219 -106 441 -178 718 -235 538 -109
1076 -123 1707 -44 358 45 936 152 1243 230 477 122 976 337 1395 600 52 32
95 59 97 59 1 0 5 -224 8 -497 3 -274 10 -565 16 -648 86 -1159 306 -1904 715
-2420 383 -483 888 -707 1415 -629 277 41 906 247 1158 379 515 271 1149 940
1938 2045 219 307 497 746 654 1033 23 42 47 77 52 77 5 0 32 -16 59 -36 67
-48 176 -89 275 -104 254 -38 615 80 901 296 264 199 457 377 1034 954 813
814 1122 1077 1369 1161 81 28 114 25 159 -16 83 -74 138 -227 206 -568 25
-122 54 -289 65 -372 23 -163 66 -586 75 -730 l5 -90 -102 -75 c-671 -491
-1482 -1291 -2109 -2080 -526 -662 -966 -1354 -1229 -1930 -186 -410 -349
-904 -393 -1195 -91 -600 -7 -1025 277 -1408 197 -265 454 -418 812 -483 138
-25 451 -25 585 -1 452 83 841 296 1185 648 473 485 800 1065 1090 1933 219
657 366 1295 464 2011 91 666 137 1251 149 1894 l7 343 180 110 c487 296 1000
504 1480 602 159 32 224 58 283 111 64 58 94 125 100 227 6 97 -22 196 -75
265 -58 76 -103 104 -198 123 -71 14 -177 -1 -400 -55 -446 -108 -906 -295
-1352 -550 l-62 -36 -5 33 c-3 18 -10 78 -16 133 -24 217 -107 653 -159 840
-73 258 -220 579 -334 730 -114 150 -258 251 -419 294 -114 31 -172 34 -292
16 -315 -47 -594 -197 -951 -510 -312 -274 -569 -529 -946 -940 -324 -352
-609 -611 -908 -824 -155 -111 -252 -157 -324 -152 -34 2 -50 65 -43 173 8
130 21 184 66 281 20 45 45 108 54 139 12 41 38 87 90 155 122 163 149 234
128 344 -23 123 -85 200 -211 262 -58 28 -76 32 -151 32 -70 0 -94 -4 -135
-24 -64 -31 -164 -132 -240 -241 -70 -99 -173 -298 -205 -396 -47 -140 -318
-677 -538 -1064 -358 -631 -816 -1284 -1271 -1810 -159 -184 -491 -517 -642
-642 -377 -314 -725 -508 -1039 -579 -734 -166 -1290 410 -1484 1541 -85 492
-112 932 -102 1665 3 264 9 508 12 543 l7 62 86 52 c515 309 1069 770 1536
1278 1409 1534 2539 3702 2805 5385 88 557 86 973 -6 1382 -155 692 -620 1159
-1174 1177 -63 2 -131 2 -150 0z m213 -763 c144 -50 247 -146 325 -303 87
-172 125 -342 142 -623 29 -478 -106 -1189 -370 -1950 -391 -1128 -1194 -2508
-2029 -3490 -379 -445 -865 -910 -1264 -1210 l-39 -29 6 45 c3 24 15 121 27
214 90 742 244 1582 450 2455 341 1447 671 2410 1154 3370 135 268 311 581
410 730 125 188 314 410 463 543 264 237 511 321 725 248z m-7708 -7291 c115
-13 187 -34 222 -64 l28 -25 -20 -36 c-32 -61 -164 -153 -335 -234 -186 -87
-402 -150 -673 -196 -155 -26 -460 -58 -504 -53 l-28 3 50 54 c206 221 588
450 872 521 141 36 255 45 388 30z m-14170 -979 c628 -42 1155 -104 1765 -207
352 -60 508 -91 454 -93 -128 -3 -1643 60 -2269 94 -828 47 -1833 128 -1899
154 -28 11 354 45 724 65 132 7 1070 -3 1225 -13z m8635 -921 c0 -6 -9 -88
-20 -183 -27 -243 -95 -919 -125 -1257 -14 -157 -27 -289 -28 -294 -2 -5 -34
31 -73 80 -445 573 -1044 1092 -1703 1475 l-144 84 174 7 c657 25 1303 58
1649 82 243 17 270 18 270 6z m19305 -817 c-3 -54 -10 -179 -15 -278 -40 -685
-169 -1628 -311 -2270 -252 -1142 -641 -1984 -1154 -2500 -411 -414 -954 -563
-1330 -367 -46 24 -98 65 -152 118 -68 66 -90 95 -122 165 -62 133 -76 213
-75 424 1 214 15 308 80 532 168 581 463 1196 859 1793 445 670 1149 1505
1723 2043 228 213 482 437 498 437 3 0 2 -44 -1 -97z"/>
<path d="M5295 11269 c-877 -66 -1629 -298 -2327 -719 -407 -245 -745 -516
-1113 -891 -1114 -1137 -1621 -2550 -1504 -4189 72 -1010 407 -1921 999 -2715
621 -833 1454 -1485 2350 -1838 466 -184 902 -287 1450 -344 208 -21 837 -24
1035 -5 746 73 1314 233 1925 543 402 203 837 502 1158 795 l42 39 -225 198
-226 199 -29 -24 c-393 -321 -578 -449 -895 -621 -794 -431 -1759 -615 -2730
-522 -1139 110 -2103 579 -2930 1426 -710 728 -1138 1574 -1284 2540 -116 767
-54 1586 173 2281 268 820 788 1567 1511 2173 636 532 1359 870 2150 1005 337
57 434 65 875 65 433 0 518 -6 845 -61 810 -135 1557 -485 2211 -1037 l102
-86 226 201 227 201 -52 46 c-892 784 -1841 1204 -2994 1326 -178 19 -789 28
-970 14z"/>
<path d="M40580 8475 l0 -1365 -559 0 -558 0 -97 -121 -96 -120 0 -175 0 -174
655 0 655 0 0 -2920 0 -2920 295 0 295 0 0 2920 0 2920 655 0 655 0 0 295 0
295 -655 0 -655 0 0 1365 0 1365 -295 0 -295 0 0 -1365z"/>
<path d="M43736 9365 c-148 -41 -310 -173 -374 -305 -87 -178 -76 -408 27
-568 72 -112 207 -214 336 -255 97 -30 253 -29 345 3 113 38 216 113 292 210
101 129 142 322 103 488 -47 199 -220 374 -422 427 -71 18 -239 18 -307 0z"/>
<path d="M13605 7679 c-775 -58 -1456 -344 -2050 -860 -121 -105 -345 -333
-441 -449 -378 -455 -628 -972 -738 -1525 -158 -801 -62 -1627 269 -2309 319
-658 886 -1253 1541 -1619 668 -373 1517 -510 2334 -376 611 100 1137 339
1632 741 132 107 401 373 509 503 563 676 829 1414 829 2300 0 1026 -358 1875
-1091 2590 -498 486 -1041 784 -1691 929 -328 73 -749 102 -1103 75z m637
-634 c454 -48 893 -204 1262 -449 362 -241 694 -580 927 -946 226 -356 361
-742 420 -1205 20 -152 17 -599 -4 -755 -97 -695 -369 -1230 -884 -1731 -596
-581 -1331 -865 -2164 -835 -779 27 -1423 300 -1977 840 -267 260 -461 525
-613 840 -197 408 -281 792 -281 1281 0 450 71 809 238 1195 309 713 981 1348
1704 1610 209 76 517 144 745 163 116 10 504 5 627 -8z"/>
<path d="M35000 7679 c-275 -20 -567 -76 -830 -161 -536 -173 -987 -454 -1416
-883 -378 -378 -636 -762 -818 -1223 -315 -795 -322 -1796 -19 -2595 375 -991
1257 -1834 2253 -2155 224 -72 437 -118 695 -148 187 -22 621 -25 805 -6 662
70 1227 287 1732 665 72 54 174 135 227 181 127 111 480 470 560 571 75 94
116 154 109 160 -7 8 -598 215 -613 215 -7 0 -58 -51 -113 -112 -373 -419
-750 -694 -1192 -867 -699 -275 -1555 -265 -2249 25 -634 266 -1214 815 -1521
1439 -95 193 -149 339 -201 541 -68 268 -83 397 -83 729 -1 160 3 307 7 328
l8 37 3209 0 3210 0 0 113 c0 387 -108 837 -290 1215 -75 154 -171 325 -189
337 -5 2 -37 -8 -72 -24 -102 -46 -299 -108 -429 -136 -66 -14 -123 -25 -126
-25 -3 0 9 -19 26 -42 147 -196 296 -480 385 -736 l34 -97 -2821 -3 c-1552 -1
-2823 -1 -2825 1 -6 7 97 257 151 364 240 479 623 909 1073 1206 366 241 749
383 1213 449 63 8 200 13 408 13 171 0 312 3 312 6 0 4 -7 26 -16 50 -46 129
-94 389 -94 507 0 45 -4 61 -16 66 -22 8 -343 5 -484 -5z"/>
<path d="M48755 7679 c-786 -60 -1472 -351 -2065 -875 -626 -554 -1021 -1225
-1169 -1985 -129 -669 -76 -1381 151 -1989 226 -608 652 -1178 1203 -1607 525
-409 1095 -636 1790 -715 147 -16 607 -16 765 0 818 86 1500 403 2094 973 227
218 472 505 444 519 -7 4 -147 56 -310 115 l-298 109 -37 -45 c-70 -83 -238
-251 -342 -341 -265 -230 -542 -399 -851 -521 -664 -261 -1497 -261 -2160 0
-555 218 -1067 640 -1418 1168 -378 567 -535 1274 -446 1998 70 573 289 1069
669 1517 94 110 336 346 445 433 405 324 849 519 1363 599 187 28 607 36 803
14 435 -48 804 -168 1160 -377 269 -158 536 -380 739 -618 73 -85 78 -89 103
-80 15 6 148 55 296 110 148 55 275 103 282 107 30 17 -272 363 -491 563 -279
253 -532 427 -840 579 -283 140 -530 224 -830 285 -327 66 -715 89 -1050 64z"/>
<path d="M25266 7480 c-395 -35 -751 -186 -1048 -444 l-88 -76 0 75 0 75 -300
0 -300 0 0 -3215 0 -3215 300 0 300 0 0 2534 c0 2808 -5 2593 66 2799 69 197
174 357 338 514 198 190 418 304 673 348 113 20 354 20 469 0 530 -93 977
-536 1069 -1059 13 -78 15 -379 15 -2612 l0 -2524 290 0 290 0 3 2513 c2 2353
4 2518 20 2607 54 287 187 534 392 728 181 171 356 269 590 329 134 34 411 44
551 19 188 -32 346 -95 506 -202 293 -195 494 -488 563 -820 14 -68 16 -345
15 -2625 l0 -2549 300 0 300 0 -3 2537 c-3 2814 2 2592 -67 2861 -150 578
-594 1075 -1151 1287 -104 40 -302 90 -419 106 -114 16 -411 16 -535 0 -509
-64 -952 -332 -1297 -784 l-59 -78 -60 84 c-223 314 -564 572 -909 690 -243
82 -556 120 -814 97z"/>
<path d="M20329 7460 c-250 -23 -491 -109 -701 -251 -123 -83 -343 -303 -425
-424 -114 -169 -192 -351 -235 -548 -19 -88 -22 -132 -22 -322 0 -190 3 -234
22 -322 78 -358 276 -664 593 -916 138 -110 405 -285 638 -417 229 -130 644
-401 831 -541 360 -271 538 -526 611 -872 17 -79 22 -137 22 -257 1 -235 -36
-398 -133 -595 -64 -130 -153 -247 -282 -370 -203 -195 -417 -305 -682 -351
-140 -25 -419 -15 -547 19 -248 65 -439 177 -622 364 -226 231 -350 511 -373
848 -4 52 -9 95 -11 95 -17 0 -570 -143 -576 -149 -11 -11 7 -203 28 -307 66
-322 247 -637 530 -919 290 -290 612 -459 1010 -531 143 -25 424 -30 585 -9
354 45 660 174 930 392 98 79 280 268 351 363 197 264 317 566 359 900 15 122
12 398 -5 520 -57 404 -227 747 -519 1048 -219 227 -570 472 -1081 757 -291
162 -666 425 -811 570 -133 132 -217 277 -261 444 -31 119 -35 321 -9 438 74
340 333 616 673 720 81 24 103 27 263 27 150 1 186 -2 255 -21 268 -73 442
-224 570 -496 48 -102 98 -266 117 -388 7 -43 17 -79 23 -79 6 0 121 45 255
100 l245 99 -2 93 c-9 315 -146 611 -403 868 -318 317 -735 462 -1211 420z"/>
<path d="M54670 7460 c-348 -37 -636 -168 -892 -409 -255 -240 -413 -524 -474
-852 -28 -145 -26 -439 4 -585 91 -455 335 -776 852 -1121 123 -82 358 -224
520 -314 136 -75 515 -327 685 -454 155 -116 336 -292 415 -403 104 -146 178
-324 212 -507 17 -92 16 -369 -1 -465 -54 -304 -219 -581 -467 -789 -162 -135
-315 -213 -524 -268 -130 -35 -399 -44 -546 -19 -251 43 -483 160 -674 342
-246 234 -378 511 -410 855 -6 68 -13 125 -15 127 -1 2 -132 -30 -290 -70
l-288 -73 6 -115 c16 -287 131 -586 331 -858 100 -137 349 -384 476 -474 104
-74 281 -169 404 -218 216 -85 475 -126 751 -117 255 8 440 44 653 129 362
144 713 448 927 803 275 455 338 1066 164 1590 -148 446 -444 791 -986 1148
-152 100 -379 236 -553 332 -69 38 -199 118 -290 178 -506 337 -677 519 -762
813 -20 69 -23 101 -22 254 0 161 2 182 27 263 50 162 125 286 246 407 187
186 411 280 672 280 275 0 488 -85 656 -263 141 -149 239 -370 288 -648 8 -46
15 -85 15 -85 0 -1 114 45 253 102 l252 102 -1 99 c-4 316 -157 633 -433 896
-208 197 -461 322 -751 371 -121 20 -320 27 -430 16z"/>
<path d="M43600 3895 l0 -3215 290 0 290 0 0 3215 0 3215 -290 0 -290 0 0
-3215z"/>
</g>
</svg>
